<svg xmlns="http://www.w3.org/2000/svg" viewBox="0 0 700 520" role="img"><rect width="700" height="520" fill="#dcebf1"/><path d="M0 390 150 210 260 355 390 165 530 340 700 220V520H0Z" fill="#9bb0ba" opacity=".65"/><path d="M0 455 180 385 360 450 530 380 700 425V520H0Z" fill="#f8f1df"/><polyline points="90,335 250,270 430,330 610,245" fill="none" stroke="#396e94" stroke-width="14" stroke-linecap="round" stroke-linejoin="round"/><polyline points="90,335 250,270 430,330 610,245" fill="none" stroke="#e7c24f" stroke-width="4" stroke-dasharray="14 14"/><circle cx="90" cy="335" r="15" fill="#a43312"/><text x="90" y="310" text-anchor="middle" font-family="Arial" font-size="24" font-weight="700" fill="#234d69">Provo</text><circle cx="250" cy="270" r="15" fill="#a43312"/><text x="250" y="245" text-anchor="middle" font-family="Arial" font-size="24" font-weight="700" fill="#234d69">Helper</text><circle cx="430" cy="330" r="15" fill="#a43312"/><text x="430" y="305" text-anchor="middle" font-family="Arial" font-size="24" font-weight="700" fill="#234d69">Green River</text><circle cx="610" cy="245" r="15" fill="#a43312"/><text x="610" y="220" text-anchor="middle" font-family="Arial" font-size="24" font-weight="700" fill="#234d69">Moab</text><text x="350" y="485" text-anchor="middle" font-family="Arial" font-size="20" fill="#56616a">Simplified route illustration - not to scale</text></svg>