<svg xmlns="http://www.w3.org/2000/svg" viewBox="0 0 700 520" role="img"><rect width="700" height="520" fill="#dcebf1"/><path d="M0 390 150 210 260 355 390 165 530 340 700 220V520H0Z" fill="#9bb0ba" opacity=".65"/><path d="M0 455 180 385 360 450 530 380 700 425V520H0Z" fill="#f8f1df"/><polyline points="80,370 245,330 400,270 610,205" fill="none" stroke="#396e94" stroke-width="14" stroke-linecap="round" stroke-linejoin="round"/><polyline points="80,370 245,330 400,270 610,205" fill="none" stroke="#e7c24f" stroke-width="4" stroke-dasharray="14 14"/><circle cx="80" cy="370" r="15" fill="#a43312"/><text x="80" y="345" text-anchor="middle" font-family="Arial" font-size="24" font-weight="700" fill="#234d69">Provo</text><circle cx="245" cy="330" r="15" fill="#a43312"/><text x="245" y="305" text-anchor="middle" font-family="Arial" font-size="24" font-weight="700" fill="#234d69">Lehi</text><circle cx="400" cy="270" r="15" fill="#a43312"/><text x="400" y="245" text-anchor="middle" font-family="Arial" font-size="24" font-weight="700" fill="#234d69">Draper</text><circle cx="610" cy="205" r="15" fill="#a43312"/><text x="610" y="180" text-anchor="middle" font-family="Arial" font-size="24" font-weight="700" fill="#234d69">Salt Lake City</text><text x="350" y="485" text-anchor="middle" font-family="Arial" font-size="20" fill="#56616a">Simplified route illustration - not to scale</text></svg>