<svg xmlns="http://www.w3.org/2000/svg" viewBox="0 0 1600 850" role="img" aria-labelledby="title desc"><title id="title">Utah mountain and desert landscape</title><desc id="desc">A stylized Utah landscape with mountains, red rocks, trees, and a road</desc><rect width="1600" height="850" fill="#dbeaf2"/><circle cx="1270" cy="155" r="82" fill="#e7c24f"/><path d="M0 500 260 190 475 440 690 135 980 500Z" fill="#7895a5"/><path d="M210 250 260 190 315 268 278 252 252 275Z" fill="#fff"/><path d="M625 205 690 135 770 230 710 210 675 245Z" fill="#fff"/><path d="M810 490 1025 260 1200 470 1375 300 1600 510V850H790Z" fill="#a43312"/><path d="M0 560 320 480 620 565 890 500 1600 600V850H0Z" fill="#d68a4a"/><path d="M0 640 360 560 760 650 1100 555 1600 680V850H0Z" fill="#f8f1df"/><path d="M720 850 C790 700 830 620 940 575 C1040 535 1160 560 1320 455" fill="none" stroke="#4c5052" stroke-width="90"/><path d="M720 850 C790 700 830 620 940 575 C1040 535 1160 560 1320 455" fill="none" stroke="#fff" stroke-width="7" stroke-dasharray="26 28"/><g fill="#497a55"><path d="M110 620l35-95 35 95h-22l28 70h-82l28-70z"/><path d="M290 600l30-80 30 80h-18l24 60h-72l24-60z"/><path d="M1440 610l34-92 34 92h-21l27 68h-80l27-68z"/></g></svg>